<svg width="9" height="14" viewBox="0 0 9 14" fill="none" xmlns="http://www.w3.org/2000/svg">
<path fill-rule="evenodd" clip-rule="evenodd" d="M2.0952 9.2278C2.0385 8.6272 1.7667 8.06387 1.3257 7.63487C0.5031 6.86007 0 5.7776 0 4.58333C0 2.19133 2.016 0.25 4.5 0.25C6.984 0.25 9 2.19133 9 4.58333C9 5.7776 8.4969 6.86007 7.6842 7.6444C7.2459 8.0708 6.975 8.63153 6.9183 9.22953C6.8778 9.5112 6.8499 9.81193 6.8247 10.0789C6.7824 10.5252 6.3936 10.8667 5.9283 10.8667C5.1165 10.8667 3.8835 10.8667 3.0717 10.8667C2.6064 10.8667 2.2176 10.5252 2.1753 10.0789C2.1501 9.81193 2.1222 9.5112 2.0952 9.2278Z" fill="#717171"/>
<path fill-rule="evenodd" clip-rule="evenodd" d="M6.5248 12.3833C6.5248 12.1441 6.34274 11.9504 6.11842 11.9504C5.34224 11.9504 3.65741 11.9504 2.88123 11.9504C2.65691 11.9504 2.47485 12.1441 2.47485 12.3833C2.47485 12.5237 2.47485 12.6771 2.47485 12.8175C2.47485 13.0567 2.65691 13.2504 2.88123 13.2504C3.65741 13.2504 5.34224 13.2504 6.11842 13.2504C6.34274 13.2504 6.5248 13.0567 6.5248 12.8175C6.5248 12.6771 6.5248 12.5237 6.5248 12.3833Z" fill="#717171"/>
</svg>
