<svg width="14" height="15" viewBox="0 0 14 15" fill="none" xmlns="http://www.w3.org/2000/svg">
<g clip-path="url(#clip0_935_4365)">
<path d="M12.8333 6.89864V7.4353C12.8326 8.69322 12.4253 9.9172 11.6721 10.9247C10.9189 11.9322 9.86024 12.6692 8.65395 13.0259C7.44766 13.3826 6.15839 13.3397 4.97843 12.9038C3.79847 12.4679 2.79104 11.6622 2.10638 10.6069C1.42173 9.55166 1.09653 8.30334 1.1793 7.04815C1.26207 5.79297 1.74836 4.59816 2.56565 3.64193C3.38295 2.6857 4.48745 2.01928 5.71443 1.74206C6.94142 1.46484 8.22515 1.59167 9.37416 2.10364" stroke="#454545" stroke-width="1.5" stroke-linecap="round" stroke-linejoin="round"/>
<path d="M12.8333 2.76904L7 8.60821L5.25 6.85821" stroke="#454545" stroke-width="1.5" stroke-linecap="round" stroke-linejoin="round"/>
</g>
<defs>
<clipPath id="clip0_935_4365">
<rect width="14" height="14" fill="white" transform="translate(0 0.435547)"/>
</clipPath>
</defs>
</svg>
