<svg width="18" height="18" viewBox="0 0 18 18" fill="none" xmlns="http://www.w3.org/2000/svg">
<g clip-path="url(#clip0_503_4182)">
<path d="M6.75 3V9.75C6.75 10.5784 7.42157 11.25 8.25 11.25H15C15.8284 11.25 16.5 10.5784 16.5 9.75V3C16.5 2.17157 15.8284 1.5 15 1.5H8.25C7.42157 1.5 6.75 2.17157 6.75 3Z" stroke="#454545" stroke-width="1.5" stroke-linecap="round" stroke-linejoin="round"/>
<path d="M11.25 14.25V15C11.25 15.3978 11.092 15.7794 10.8107 16.0607C10.5294 16.342 10.1478 16.5 9.75 16.5H3C2.60218 16.5 2.22064 16.342 1.93934 16.0607C1.65804 15.7794 1.5 15.3978 1.5 15V8.25C1.5 7.85218 1.65804 7.47064 1.93934 7.18934C2.22064 6.90804 2.60218 6.75 3 6.75H3.75" stroke="#454545" stroke-width="1.5" stroke-linecap="round" stroke-linejoin="round"/>
</g>
<defs>
<clipPath id="clip0_503_4182">
<rect width="18" height="18" fill="white" transform="matrix(0 -1 1 0 0 18)"/>
</clipPath>
</defs>
</svg>
