<svg width="24" height="16" viewBox="0 0 24 16" fill="none" xmlns="http://www.w3.org/2000/svg">
<path d="M20.8654 6.4V5.38501C20.8674 5.3672 20.8771 5.35168 20.8771 5.33333C20.8771 5.23723 20.8489 5.14715 20.7984 5.06928L19.0294 0.364587C18.9478 0.14688 18.7181 0 18.459 0H5.22378C4.96467 0 4.73498 0.14688 4.65305 0.364587L2.84824 5.16459C2.82929 5.21504 2.8222 5.26688 2.82069 5.31877C2.82051 5.32384 2.81738 5.328 2.81738 5.33307V6.4C2.81738 7.28229 3.62696 8 4.62218 8V14.9333H3.41898C3.08678 14.9333 2.81738 15.1719 2.81738 15.4667C2.81738 15.7614 3.08678 16 3.41898 16H5.22378H9.43498H14.2478H18.459H20.2638C20.5963 16 20.8654 15.7614 20.8654 15.4667C20.8654 15.1719 20.5963 14.9333 20.2638 14.9333H19.0606V8C20.0558 8 20.8654 7.28229 20.8654 6.4ZM5.65736 1.06667H18.0254L19.4288 4.79973H4.25364L5.65736 1.06667ZM4.02058 6.4V5.86667H19.6622V6.4C19.6622 6.69403 19.3925 6.93333 19.0606 6.93333H18.459H5.22378H4.62218C4.29052 6.93333 4.02058 6.69403 4.02058 6.4ZM10.0366 14.9333V11.2H13.6462V14.9333H10.0366ZM17.8574 14.9333H14.8494V10.6667C14.8494 10.3719 14.5803 10.1333 14.2478 10.1333H9.43498C9.10278 10.1333 8.83338 10.3719 8.83338 10.6667V14.9333H5.82538V8H17.8574V14.9333Z" fill="#454545"/>
</svg>
