<svg width="21" height="18" viewBox="0 0 21 18" fill="none" xmlns="http://www.w3.org/2000/svg">
<g id="Group">
<path id="Vector" d="M20.8421 7.2V6.05814C20.8444 6.0381 20.8553 6.02064 20.8553 6C20.8553 5.89188 20.8235 5.79054 20.7667 5.70294L18.7766 0.41016C18.6848 0.16524 18.4264 0 18.1349 0H3.24529C2.95379 0 2.69539 0.16524 2.60321 0.41016L0.572806 5.81016C0.551487 5.86692 0.5435 5.92524 0.541808 5.98362C0.541605 5.98932 0.538086 5.994 0.538086 5.9997V7.2C0.538086 8.19258 1.44886 9 2.56849 9V16.8H1.21489C0.841157 16.8 0.538086 17.0684 0.538086 17.4C0.538086 17.7316 0.841157 18 1.21489 18H3.24529H7.98289H13.3973H18.1349H20.1653C20.5394 18 20.8421 17.7316 20.8421 17.4C20.8421 17.0684 20.5394 16.8 20.1653 16.8H18.8117V9C19.9313 9 20.8421 8.19258 20.8421 7.2ZM3.73306 1.2H17.6471L19.226 5.3997H2.15388L3.73306 1.2ZM1.89169 7.2V6.6H19.4885V7.2C19.4885 7.53078 19.1851 7.8 18.8117 7.8H18.1349H3.24529H2.56849C2.19537 7.8 1.89169 7.53078 1.89169 7.2ZM8.65969 16.8V12.6H12.7205V16.8H8.65969ZM17.4581 16.8H14.0741V12C14.0741 11.6684 13.7714 11.4 13.3973 11.4H7.98289C7.60916 11.4 7.30609 11.6684 7.30609 12V16.8H3.92209V9H17.4581V16.8Z" fill="#454545"/>
</g>
</svg>
