<svg width="29" height="44" viewBox="0 0 29 44" fill="none" xmlns="http://www.w3.org/2000/svg">
<path d="M14.5442 42.5387C14.4999 42.4179 14.2773 41.6043 14.0495 40.7307C13.3289 37.9676 12.0826 34.9965 10.3913 32.0095C9.42027 30.2947 9.24467 30.0214 6.40775 25.8083C1.8237 19.0008 1.01811 17.0893 1.1875 13.4229C1.34283 10.0631 2.52962 7.54589 5.1058 5.11176C7.24416 3.09141 9.61764 1.92604 12.5048 1.47909C19.6598 0.371459 26.6012 4.87163 28.0077 11.5294C28.3356 13.0816 28.2628 15.7529 27.8531 17.2041C27.4036 18.7961 25.6005 22.017 23.0521 25.7796C18.4525 32.571 16.7108 35.9631 15.4068 40.6703C14.9019 42.4927 14.6931 42.9451 14.5442 42.5387Z" fill="#454545" stroke="white" stroke-width="1.0239"/>
<path d="M22.2046 14.4602C22.2046 18.5748 18.8689 21.9106 14.7541 21.9106C10.6396 21.9106 7.30371 18.5748 7.30371 14.4602C7.30371 10.3453 10.6393 7.00977 14.7541 7.00977C18.8689 7.00977 22.2046 10.3453 22.2046 14.4602Z" fill="white"/>
<path d="M19.3456 13.5306V13.0107C19.3467 13.0016 19.3518 12.9937 19.3518 12.9843C19.3518 12.935 19.3369 12.8889 19.3102 12.849L18.3755 10.4392C18.3324 10.3277 18.211 10.2524 18.0741 10.2524H11.0806C10.9437 10.2524 10.8223 10.3277 10.779 10.4392L9.82539 12.8978C9.81538 12.9237 9.81163 12.9502 9.81083 12.9768C9.81074 12.9794 9.80908 12.9815 9.80908 12.9841V13.5306C9.80908 13.9826 10.2369 14.3502 10.7627 14.3502V17.9015H10.127C9.95143 17.9015 9.80908 18.0237 9.80908 18.1747C9.80908 18.3257 9.95143 18.4479 10.127 18.4479H11.0806H13.3058H15.8489H18.0741H19.0277C19.2034 18.4479 19.3456 18.3257 19.3456 18.1747C19.3456 18.0237 19.2034 17.9015 19.0277 17.9015H18.392V14.3502C18.9178 14.3502 19.3456 13.9826 19.3456 13.5306ZM11.3097 10.7988H17.845L18.5865 12.7109H10.568L11.3097 10.7988ZM10.4449 13.5306V13.2574H18.7099V13.5306C18.7099 13.6812 18.5674 13.8038 18.392 13.8038H18.0741H11.0806H10.7627C10.5875 13.8038 10.4449 13.6812 10.4449 13.5306ZM13.6237 17.9015V15.9893H15.531V17.9015H13.6237ZM17.7562 17.9015H16.1668V15.7161C16.1668 15.5651 16.0246 15.4429 15.8489 15.4429H13.3058C13.1303 15.4429 12.9879 15.5651 12.9879 15.7161V17.9015H11.3985V14.3502H17.7562V17.9015Z" fill="#454545"/>
</svg>
