<svg width="29" height="44" viewBox="0 0 29 44" fill="none" xmlns="http://www.w3.org/2000/svg">
<path d="M14.491 42.5026C14.4467 42.3818 14.2241 41.5681 13.9963 40.6946C13.2757 37.9315 12.0294 34.9604 10.3381 31.9734C9.36705 30.2586 9.19145 29.9853 6.35452 25.7722C1.77048 18.9647 0.964887 17.0531 1.13428 13.3868C1.28961 10.027 2.4764 7.50976 5.05258 5.07563C7.19094 3.05527 9.56442 1.88991 12.4516 1.44296C19.6066 0.335326 26.548 4.83549 27.9545 11.4933C28.2823 13.0454 28.2096 15.7168 27.7999 17.168C27.3504 18.76 25.5473 21.9809 22.9989 25.7435C18.3993 32.5349 16.6576 35.927 15.3536 40.6342C14.8487 42.4566 14.6399 42.9089 14.491 42.5026Z" fill="#454545" stroke="white" stroke-width="1.0239"/>
<path d="M22.1518 14.4241C22.1518 18.5387 18.8162 21.8745 14.7014 21.8745C10.5868 21.8745 7.25098 18.5387 7.25098 14.4241C7.25098 10.3092 10.5866 6.97363 14.7014 6.97363C18.8162 6.97363 22.1518 10.3092 22.1518 14.4241Z" fill="white"/>
<path fill-rule="evenodd" clip-rule="evenodd" d="M12.0132 16.2927C12.0406 16.2927 12.0867 16.2136 12.1507 16.0561L13.6585 12.4458C13.7279 12.2833 13.7625 12.146 13.7625 12.0338C13.7625 11.8335 13.6708 11.7161 13.4882 11.6816C13.3773 11.6628 13.3027 11.6464 13.2637 11.633C13.2251 11.6169 13.2057 11.5902 13.2057 11.5521C13.2057 11.5227 13.2153 11.497 13.2346 11.4753C13.2541 11.454 13.2945 11.4434 13.3556 11.4434C13.4165 11.4434 13.5056 11.4484 13.6223 11.4593C13.7417 11.4699 13.8447 11.4753 13.9308 11.4753C14.05 11.4753 14.1796 11.4699 14.3182 11.4593C14.4574 11.4484 14.5337 11.4434 14.5476 11.4434C14.6031 11.4434 14.6419 11.4511 14.6642 11.4672C14.6892 11.4807 14.7016 11.5093 14.7016 11.5521C14.7016 11.5902 14.6447 11.633 14.5307 11.6816C14.4167 11.7349 14.303 11.8976 14.189 12.1693L12.2877 16.4932C12.1071 16.8999 12.0001 17.1353 11.9669 17.1996C11.9031 17.3356 11.8489 17.4037 11.8046 17.4037C11.7634 17.4037 11.7315 17.3943 11.7094 17.3755C11.6871 17.3544 11.6535 17.2955 11.6096 17.1996C11.5789 17.1485 11.5359 17.0511 11.4804 16.9066L9.42479 12.1693C9.31076 11.8976 9.16767 11.7349 8.99551 11.6816C8.90362 11.6601 8.83836 11.6411 8.79935 11.6249C8.76071 11.6061 8.74121 11.5821 8.74121 11.5521C8.74121 11.5171 8.74965 11.4901 8.76615 11.4712C8.78266 11.4528 8.82298 11.4434 8.88693 11.4434C8.9702 11.4434 9.08572 11.4484 9.23294 11.4593C9.38297 11.4699 9.52062 11.4753 9.64552 11.4753C9.75936 11.4753 9.88444 11.4699 10.0206 11.4593C10.1567 11.4484 10.2541 11.4434 10.3126 11.4434C10.3955 11.4434 10.4373 11.4699 10.4373 11.5239C10.4373 11.559 10.4191 11.5873 10.3833 11.6088C10.3475 11.6305 10.3073 11.6547 10.2631 11.6816C10.1498 11.7537 10.093 11.8416 10.093 11.9453C10.093 12.0443 10.1153 12.1429 10.1596 12.2412L11.8508 16.088C11.9035 16.2244 11.9579 16.2927 12.0132 16.2927Z" fill="#454545"/>
<path fill-rule="evenodd" clip-rule="evenodd" d="M20.6472 13.2126C20.6472 13.317 20.6213 13.369 20.5693 13.369C20.5259 13.369 20.4901 13.3438 20.4613 13.293C20.4327 13.2423 20.4036 13.1886 20.375 13.1325C20.1761 12.772 19.8875 12.4408 19.5095 12.1388C19.1345 11.8343 18.6371 11.6819 18.017 11.6819C17.212 11.6819 16.586 11.9104 16.139 12.3676C15.6918 12.822 15.4683 13.462 15.4683 14.2881C15.4683 15.0849 15.7094 15.761 16.1908 16.3169C16.6727 16.87 17.2941 17.1469 18.0555 17.1469C18.7163 17.1469 19.2961 16.9824 19.7953 16.6535C19.9656 16.5408 20.1011 16.4368 20.2025 16.3402C20.3151 16.2284 20.3906 16.1211 20.4278 16.0194C20.4681 15.9152 20.5191 15.863 20.5795 15.863C20.6342 15.863 20.662 15.8912 20.662 15.9476C20.662 15.9552 20.6515 15.9942 20.6316 16.0637L20.4659 16.7256C20.4198 16.8888 20.1457 17.0427 19.6436 17.187C19.1417 17.3311 18.6119 17.4037 18.0553 17.4037C16.9271 17.4037 16.0865 17.1279 15.5326 16.5773C14.9785 16.0268 14.7017 15.355 14.7017 14.5639C14.7017 13.6872 15.0028 12.9477 15.6058 12.3462C16.2083 11.7442 16.9713 11.4434 17.8943 11.4434C18.3269 11.4434 18.7046 11.4865 19.028 11.5719C19.3508 11.6548 19.6463 11.7711 19.9144 11.921C20.105 12.0305 20.2261 12.0856 20.2783 12.0856C20.3069 12.0856 20.3398 12.0747 20.3778 12.0534C20.4151 12.0321 20.4556 12.0211 20.499 12.0211C20.545 12.0211 20.5722 12.0735 20.581 12.1775L20.6384 13.0683C20.6443 13.1538 20.6472 13.202 20.6472 13.2126Z" fill="#454545"/>
</svg>
