<svg width="23" height="12" viewBox="0 0 23 12" fill="none" xmlns="http://www.w3.org/2000/svg">
<path fill-rule="evenodd" clip-rule="evenodd" d="M6.1927 9.76321C6.24452 9.76321 6.33184 9.60393 6.45288 9.28683L9.30662 2.01824C9.43795 1.69096 9.50362 1.41459 9.50362 1.18876C9.50362 0.785478 9.33005 0.549108 8.98433 0.479651C8.77456 0.441832 8.6333 0.40874 8.55947 0.38183C8.48635 0.349465 8.44979 0.295645 8.44979 0.218916C8.44979 0.159641 8.46789 0.108003 8.50445 0.0643656C8.54136 0.0214552 8.61768 0 8.73339 0C8.84875 0 9.01734 0.0101821 9.23812 0.032001C9.46422 0.0534562 9.65908 0.0643656 9.822 0.0643656C10.0477 0.0643656 10.293 0.0534562 10.5553 0.032001C10.8187 0.0101821 10.9631 0 10.9894 0C11.0945 0 11.1679 0.0156368 11.2102 0.0480015C11.2574 0.075275 11.2808 0.132731 11.2808 0.218916C11.2808 0.295645 11.1733 0.38183 10.9575 0.479651C10.7417 0.586927 10.5266 0.914573 10.3108 1.4615L6.71234 10.1669C6.37053 10.9858 6.16786 11.4596 6.10503 11.5891C5.98435 11.8629 5.88177 12 5.798 12C5.71992 12 5.65958 11.9811 5.61769 11.9433C5.57546 11.9007 5.51192 11.7822 5.42886 11.5891C5.37065 11.4862 5.28937 11.2902 5.18431 10.9992L1.29377 1.4615C1.07796 0.914573 0.807142 0.586927 0.481304 0.479651C0.307381 0.436377 0.183861 0.398194 0.110033 0.365466C0.0369141 0.327646 0 0.279281 0 0.218916C0 0.148368 0.0159725 0.0941847 0.0472075 0.0560017C0.0784426 0.0189097 0.154755 0 0.275791 0C0.433386 0 0.652032 0.0101821 0.930662 0.032001C1.21462 0.0534562 1.47515 0.0643656 1.71154 0.0643656C1.92699 0.0643656 2.16374 0.0534562 2.42143 0.032001C2.67911 0.0101821 2.86333 0 2.97407 0C3.13096 0 3.21011 0.0534562 3.21011 0.162187C3.21011 0.232734 3.17568 0.289827 3.10789 0.333101C3.04009 0.376739 2.96413 0.425467 2.88037 0.479651C2.66598 0.624746 2.55843 0.801843 2.55843 1.01058C2.55843 1.20985 2.60067 1.40841 2.68444 1.60623L5.88532 9.35119C5.98506 9.62575 6.08799 9.76321 6.1927 9.76321Z" fill="#454545"/>
<path fill-rule="evenodd" clip-rule="evenodd" d="M22.5335 3.56211C22.5335 3.77227 22.4845 3.87698 22.3861 3.87698C22.304 3.87698 22.2362 3.82608 22.1816 3.72391C22.1275 3.62174 22.0726 3.51376 22.0184 3.40068C21.6418 2.67495 21.0957 2.00812 20.3802 1.40019C19.6705 0.787177 18.729 0.480305 17.5555 0.480305C16.0318 0.480305 14.8472 0.94025 14.0012 1.86087C13.1548 2.77566 12.7318 4.06423 12.7318 5.72731C12.7318 7.33147 13.188 8.69277 14.0992 9.8119C15.0112 10.9256 16.1873 11.483 17.6284 11.483C18.879 11.483 19.9763 11.1517 20.9211 10.4896C21.2435 10.2628 21.4999 10.0533 21.6919 9.8588C21.9049 9.63374 22.0479 9.41777 22.1182 9.21307C22.1945 9.00327 22.2911 8.89819 22.4053 8.89819C22.5088 8.89819 22.5615 8.95491 22.5615 9.06836C22.5615 9.08363 22.5416 9.16216 22.504 9.30215L22.1905 10.6347C22.1031 10.9634 21.5843 11.2732 20.634 11.5637C19.6841 11.8538 18.6815 12 17.6281 12C15.4928 12 13.9017 11.4448 12.8534 10.3362C11.8047 9.22797 11.2808 7.87541 11.2808 6.28251C11.2808 4.51763 11.8508 3.02872 12.9919 1.8176C14.1324 0.605745 15.5764 0 17.3233 0C18.1421 0 18.8569 0.0868986 19.4689 0.258878C20.0799 0.425767 20.6392 0.65992 21.1466 0.961702C21.5073 1.18204 21.7365 1.29293 21.8353 1.29293C21.8894 1.29293 21.9517 1.27112 22.0235 1.22821C22.0943 1.18531 22.1709 1.16313 22.2531 1.16313C22.3401 1.16313 22.3916 1.26857 22.4082 1.478L22.5169 3.2716C22.528 3.44358 22.5335 3.54066 22.5335 3.56211Z" fill="#454545"/>
</svg>
