<svg width="340" height="29" viewBox="0 0 340 29" fill="none" xmlns="http://www.w3.org/2000/svg">
<path fill-rule="evenodd" clip-rule="evenodd" d="M14.5255 23.7535C14.6471 23.7535 14.8519 23.3799 15.1358 22.6361L21.8295 5.58699C22.1376 4.81932 22.2916 4.17107 22.2916 3.64138C22.2916 2.69544 21.8845 2.14101 21.0735 1.97809C20.5815 1.88938 20.2502 1.81176 20.077 1.74864C19.9055 1.67273 19.8197 1.54649 19.8197 1.36651C19.8197 1.22748 19.8622 1.10636 19.9479 1.004C20.0345 0.903352 20.2135 0.853027 20.4849 0.853027C20.7555 0.853027 21.151 0.87691 21.6688 0.928088C22.1992 0.978414 22.6562 1.004 23.0384 1.004C23.5679 1.004 24.1432 0.978414 24.7584 0.928088C25.3762 0.87691 25.715 0.853027 25.7766 0.853027C26.0231 0.853027 26.1954 0.889705 26.2945 0.965619C26.4052 1.02959 26.4602 1.16436 26.4602 1.36651C26.4602 1.54649 26.2079 1.74864 25.7017 1.97809C25.1955 2.22972 24.691 2.99824 24.1848 4.2811L15.7444 24.7003C14.9426 26.6212 14.4673 27.7326 14.3199 28.0362C14.0368 28.6785 13.7962 29.0001 13.5997 29.0001C13.4166 29.0001 13.275 28.9557 13.1768 28.867C13.0777 28.7672 12.9287 28.4892 12.7339 28.0362C12.5973 27.7948 12.4067 27.3351 12.1602 26.6527L3.03465 4.2811C2.52846 2.99824 1.89322 2.22972 1.12894 1.97809C0.72099 1.87659 0.431262 1.78703 0.258091 1.71026C0.0865854 1.62155 0 1.50811 0 1.36651C0 1.20104 0.0374648 1.07395 0.110729 0.984384C0.183994 0.897382 0.362993 0.853027 0.646893 0.853027C1.01655 0.853027 1.5294 0.87691 2.18295 0.928088C2.84899 0.978414 3.46008 1.004 4.01456 1.004C4.51992 1.004 5.07523 0.978414 5.67967 0.928088C6.2841 0.87691 6.71619 0.853027 6.97595 0.853027C7.34394 0.853027 7.5296 0.978414 7.5296 1.23345C7.5296 1.39893 7.44884 1.53284 7.28982 1.63435C7.13081 1.7367 6.95264 1.851 6.75616 1.97809C6.2533 2.31842 6.00103 2.73382 6.00103 3.22342C6.00103 3.69085 6.10011 4.15657 6.29659 4.62058L13.8045 22.7871C14.0385 23.4311 14.2799 23.7535 14.5255 23.7535Z" fill="#646565"/>
<path fill-rule="evenodd" clip-rule="evenodd" d="M23.8995 10.5047C23.8995 10.3825 23.9313 10.3093 23.9941 10.2835C24.0559 10.2534 24.1673 10.2354 24.3293 10.2354C24.6327 10.2354 25.0822 10.2543 25.6806 10.2913C26.2799 10.3274 26.7799 10.3455 27.1817 10.3455C27.5394 10.3455 27.9945 10.3274 28.5488 10.2913C29.1098 10.2543 29.4862 10.2354 29.6725 10.2354C29.8514 10.2354 29.9947 10.2483 30.1024 10.2723C30.2185 10.2887 30.2765 10.3584 30.2765 10.4806C30.2765 10.5855 30.2297 10.6681 30.1417 10.7258C30.0602 10.7808 29.8243 10.8583 29.43 10.9572C28.6762 11.1706 28.3007 11.6946 28.3007 12.53V25.6563C28.3007 26.1889 28.4215 26.5864 28.6621 26.8496C28.9103 27.1017 29.3916 27.2945 30.1014 27.4244C30.2784 27.4665 30.4264 27.519 30.5416 27.5853C30.6652 27.6421 30.7279 27.7548 30.7279 27.926C30.7279 28.0077 30.697 28.0662 30.6352 28.0972C30.5809 28.1299 30.4301 28.1471 30.182 28.1471C30.0115 28.1471 29.5752 28.1265 28.8747 28.0929C28.1808 28.0551 27.6283 28.0378 27.22 28.0378C26.4737 28.0378 25.9437 28.0551 25.6337 28.0929C25.3219 28.1265 24.9829 28.1471 24.6187 28.1471C24.2188 28.1471 24.0193 28.0275 24.0193 27.7918C24.0193 27.6455 24.1926 27.5233 24.5381 27.4244C24.981 27.3108 25.3584 27.131 25.6712 26.8849C25.9802 26.6311 26.1357 26.1562 26.1357 25.4584V12.53C26.1357 11.6946 25.703 11.1706 24.8368 10.9572C24.6505 10.9082 24.4454 10.8566 24.2225 10.7981C24.0072 10.7327 23.8995 10.6354 23.8995 10.5047Z" fill="#646565"/>
<path fill-rule="evenodd" clip-rule="evenodd" d="M46.0919 22.9887C46.0919 24.4817 45.4733 25.7173 44.236 26.6887C42.9995 27.6601 41.34 28.1471 39.2607 28.1471C38.3041 28.1471 37.3416 27.991 36.3698 27.6796C35.3963 27.3673 34.8779 27.0525 34.8139 26.7326L34.2146 23.6901C34.1658 23.4402 34.1422 23.2698 34.1422 23.1828C34.1422 22.8925 34.2652 22.7473 34.5122 22.7473C34.6807 22.7473 34.7987 22.8722 34.8712 23.1212C34.9353 23.3769 35.012 23.6318 35.0996 23.8901C35.4764 24.9577 36.1228 25.8025 37.0381 26.4279C37.961 27.0466 39.0264 27.3546 40.2308 27.3546C41.4673 27.3546 42.5385 27.0094 43.4462 26.3182C44.3523 25.6202 44.8066 24.6708 44.8066 23.4757C44.8066 22.8165 44.5537 22.1988 44.0489 21.6189C43.5507 21.0425 42.2384 20.4762 40.112 19.9225C38.0344 19.3849 36.6134 18.7165 35.8531 17.9206C35.0979 17.1172 34.7203 16.1263 34.7203 14.9456C34.7203 13.4197 35.2471 12.255 36.299 11.4515C37.3593 10.6413 38.6522 10.2354 40.1786 10.2354C41.0543 10.2354 41.7698 10.3037 42.3236 10.4396C42.8773 10.5679 43.3552 10.7206 43.7564 10.897C43.9578 10.9781 44.0817 11.0338 44.1306 11.0658C44.1787 11.0971 44.2461 11.1139 44.3346 11.1139C44.4475 11.1139 44.536 11.0717 44.6001 10.9848C44.6641 10.8996 44.7493 10.8574 44.8546 10.8574C45.0139 10.8574 45.1142 10.9899 45.1547 11.254L45.4893 14.262C45.5053 14.4055 45.5137 14.5059 45.5137 14.5624C45.5137 14.7633 45.4421 14.8637 45.2988 14.8637C45.0754 14.8637 44.9052 14.635 44.7855 14.1776C44.4956 13.2619 43.9384 12.504 43.1116 11.9005C42.2924 11.2903 41.2844 10.9848 40.0884 10.9848C38.8924 10.9848 37.9113 11.2751 37.1494 11.8533C36.3866 12.4246 36.0057 13.2112 36.0057 14.2156C36.0057 15.2916 36.5678 16.0951 37.6905 16.6251C38.8216 17.1475 40.2662 17.6624 42.0244 18.1679C43.4437 18.6026 44.4745 19.2212 45.1167 20.0247C45.7666 20.8197 46.0919 21.8071 46.0919 22.9887Z" fill="#646565"/>
<path fill-rule="evenodd" clip-rule="evenodd" d="M48.6525 10.4527C48.6525 10.3726 48.7009 10.3155 48.7968 10.2831C48.8927 10.2515 49.0461 10.2354 49.2613 10.2354C49.5315 10.2354 49.8184 10.2541 50.1203 10.289C50.4238 10.3248 50.7524 10.3436 51.1118 10.3436C51.4379 10.3436 51.8632 10.3248 52.3894 10.289C52.9231 10.2541 53.2717 10.2354 53.4393 10.2354C53.6478 10.2354 53.8254 10.2481 53.9764 10.2711C54.1273 10.2959 54.204 10.364 54.204 10.4782C54.204 10.5822 54.1623 10.6683 54.084 10.7305C54.0114 10.7961 53.8396 10.8694 53.5677 10.9495C53.2083 11.0543 52.9515 11.2085 52.8005 11.4105C52.6479 11.6142 52.572 11.9789 52.572 12.5064V21.3596C52.572 23.1866 53.0882 24.6055 54.1198 25.6213C55.1597 26.6268 56.625 27.1305 58.5138 27.1305C60.3393 27.1305 61.7253 26.6183 62.6702 25.5957C63.6225 24.5731 64.0979 23.0835 64.0979 21.1269V12.8967C64.0979 11.8178 63.645 11.1676 62.7377 10.9495C62.3875 10.8847 62.1489 10.8251 62.0222 10.7671C61.8946 10.7023 61.8304 10.606 61.8304 10.4782C61.8304 10.4049 61.8554 10.3487 61.9029 10.3078C61.9513 10.2592 62.0572 10.2354 62.2248 10.2354C62.505 10.2354 62.9195 10.2541 63.4682 10.289C64.0186 10.3248 64.4773 10.3436 64.8434 10.3436C65.0194 10.3436 65.2687 10.3248 65.5964 10.289C65.9233 10.2541 66.1385 10.2354 66.2427 10.2354C66.4654 10.2354 66.5772 10.3316 66.5772 10.5259C66.5772 10.6955 66.437 10.8353 66.1593 10.9495C65.8425 11.0867 65.5956 11.3142 65.4196 11.6295C65.2454 11.9465 65.1578 12.3692 65.1578 12.8967V21.1806C65.1578 23.3801 64.5615 25.0938 63.3707 26.3209C62.1873 27.5378 60.5136 28.1471 58.3537 28.1471C53.2133 28.1471 50.644 25.6963 50.644 20.7895V12.3112C50.644 11.8417 50.5639 11.5332 50.4063 11.3866C50.2462 11.2324 49.9401 11.0867 49.4873 10.9495C49.3213 10.9094 49.1387 10.8523 48.9394 10.779C48.7484 10.7075 48.6525 10.5984 48.6525 10.4527Z" fill="#646565"/>
<path fill-rule="evenodd" clip-rule="evenodd" d="M75.5849 12.6461C75.4937 12.6461 75.3683 12.8192 75.2046 13.1627L72.6436 18.6294C72.595 18.7341 72.5549 18.821 72.5225 18.8927C72.497 18.9645 72.485 19.0295 72.485 19.0852C72.485 19.1662 72.5174 19.2219 72.5822 19.254C72.6479 19.286 72.774 19.3012 72.9616 19.3012H77.8143C78.1314 19.3012 78.2909 19.2337 78.2909 19.097C78.2909 19.0084 78.2465 18.8699 78.1553 18.6783L75.9762 13.4032C75.7648 12.8985 75.6343 12.6461 75.5849 12.6461ZM85.3554 27.0535C85.3554 27.2131 85.2216 27.2941 84.9539 27.2941C84.6691 27.2941 84.2011 27.2747 83.5506 27.2409C82.8984 27.2038 82.3963 27.1869 82.0373 27.1869C81.7202 27.1869 81.3383 27.2038 80.8907 27.2409C80.4516 27.2747 80.143 27.2941 79.9631 27.2941C79.5726 27.2941 79.3774 27.2131 79.3774 27.0535C79.3774 26.9514 79.432 26.8712 79.5368 26.8138C79.6434 26.7598 79.8386 26.6839 80.1242 26.5851C80.6153 26.4096 80.8608 26.1496 80.8608 25.8103C80.8608 25.5191 80.7508 25.0988 80.5317 24.5477L79.1788 21.1555C78.9767 20.6474 78.6476 20.3951 78.1932 20.3951H72.6568C72.0873 20.3951 71.7139 20.5841 71.534 20.9623L70.1077 24.1265C70.0181 24.3215 69.9448 24.5341 69.8886 24.7688C69.8297 25.0034 69.8025 25.1697 69.8025 25.2651C69.8025 25.671 69.892 25.9808 70.0719 26.1977C70.25 26.418 70.4453 26.5471 70.6559 26.5851C70.7692 26.6189 70.9491 26.6628 71.193 26.7176C71.4359 26.7657 71.5578 26.8425 71.5578 26.9455C71.5578 27.1776 71.4496 27.2941 71.2288 27.2941C70.8076 27.2941 70.3532 27.2747 69.8655 27.2409C69.3856 27.2038 69.0497 27.1869 68.8536 27.1869C68.6515 27.1869 68.3301 27.2038 67.891 27.2409C67.4605 27.2747 67.1323 27.2941 66.9064 27.2941C66.6864 27.2941 66.5773 27.2063 66.5773 27.0308C66.5773 26.8864 66.7623 26.7396 67.1374 26.5851C67.4938 26.4501 67.7632 26.288 67.9413 26.0998C68.1195 25.9133 68.3437 25.5579 68.6114 25.0296L75.5435 10.2365C75.691 9.94697 75.8052 9.73512 75.8854 9.59924C75.9757 9.45407 76.0738 9.38232 76.1786 9.38232C76.3091 9.38232 76.4157 9.50302 76.4975 9.74356C76.5785 9.98411 76.6723 10.2331 76.7797 10.4897L82.0791 23.5011C82.4926 24.4945 82.8345 25.2313 83.1022 25.7158C83.3699 26.191 83.8729 26.4813 84.6129 26.5851C84.8073 26.6282 84.9778 26.6788 85.1244 26.7429C85.2787 26.7986 85.3554 26.9025 85.3554 27.0535Z" fill="#646565"/>
<path fill-rule="evenodd" clip-rule="evenodd" d="M89.1252 25.2853V12.5293C89.1252 11.9881 88.9452 11.6284 88.586 11.4486C88.2261 11.2601 87.8184 11.0958 87.3621 10.9564C87.1629 10.891 87.0624 10.7817 87.0624 10.6269C87.0624 10.3661 87.2416 10.2354 87.6024 10.2354C87.697 10.2354 88.0319 10.2551 88.6078 10.2896C89.1829 10.3257 89.6643 10.3438 90.0561 10.3438C90.5282 10.3438 91.0313 10.3257 91.5663 10.2896C92.1088 10.2551 92.3917 10.2354 92.416 10.2354C92.7023 10.2354 92.8471 10.3334 92.8471 10.5279C92.8471 10.6423 92.7785 10.7284 92.6437 10.7852C92.5156 10.842 92.3239 10.8988 92.0677 10.9564C91.3963 11.1362 91.0606 11.7256 91.0606 12.7263V25.9401C91.0606 26.4391 91.2071 26.7635 91.5035 26.9107C91.799 27.0501 92.2285 27.1198 92.7952 27.1198C94.3113 27.1198 95.5988 26.9305 96.6603 26.5536C97.7268 26.1681 98.5121 25.7104 99.0152 25.1752C99.2396 24.9446 99.4664 24.72 99.6983 24.4989C99.8097 24.4989 99.8657 24.6098 99.8657 24.831C99.8657 25.5133 99.4438 26.3531 98.6 27.346C98.2969 27.6825 97.9972 27.9002 97.7026 27.9983C97.4079 28.0972 96.9608 28.1471 96.3614 28.1471C95.8274 28.1471 94.9492 28.1273 93.7286 28.092C92.5072 28.055 91.7563 28.0378 91.4775 28.0378C90.7844 28.0378 90.0937 28.055 89.4073 28.092C88.7208 28.1273 88.1943 28.1471 87.8276 28.1471C87.5153 28.1471 87.3605 28.068 87.3605 27.9088C87.3605 27.7092 87.5329 27.556 87.8761 27.4476C88.2135 27.3486 88.5057 27.1731 88.7526 26.9184C89.0021 26.6663 89.1252 26.1199 89.1252 25.2853Z" fill="#646565"/>
<mask id="mask0_1150_4065" style="mask-type:luminance" maskUnits="userSpaceOnUse" x="109" y="0" width="27" height="29">
<path fill-rule="evenodd" clip-rule="evenodd" d="M109.255 0H135.715V28.1471H109.255V0Z" fill="white"/>
</mask>
<g mask="url(#mask0_1150_4065)">
<path fill-rule="evenodd" clip-rule="evenodd" d="M135.649 8.35506C135.649 8.848 135.534 9.09362 135.303 9.09362C135.111 9.09362 134.952 8.97422 134.824 8.73457C134.697 8.49492 134.568 8.24163 134.441 7.9764C133.558 6.27412 132.277 4.71001 130.598 3.28405C128.934 1.84616 126.725 1.12636 123.973 1.12636C120.399 1.12636 117.62 2.20521 115.636 4.36461C113.65 6.51036 112.658 9.53283 112.658 13.4337C112.658 17.1965 113.728 20.3895 115.866 23.0146C118.005 25.6268 120.764 26.9342 124.144 26.9342C127.077 26.9342 129.651 26.1573 131.867 24.6043C132.623 24.0721 133.225 23.5809 133.675 23.1246C134.175 22.5967 134.51 22.0901 134.675 21.6099C134.854 21.1179 135.08 20.8714 135.348 20.8714C135.591 20.8714 135.715 21.0044 135.715 21.2705C135.715 21.3063 135.668 21.4905 135.58 21.8189L134.845 24.9446C134.64 25.7155 133.423 26.4422 131.194 27.1236C128.966 27.8041 126.614 28.147 124.143 28.147C119.134 28.147 115.402 26.8447 112.943 24.2444C110.484 21.6449 109.255 18.4723 109.255 14.736C109.255 10.5963 110.592 7.10394 113.268 4.26312C115.943 1.42059 119.331 -0.000244141 123.428 -0.000244141C125.349 -0.000244141 127.025 0.203585 128.461 0.60698C129.894 0.998435 131.206 1.54767 132.396 2.25553C133.242 2.77235 133.78 3.03247 134.011 3.03247C134.138 3.03247 134.284 2.98129 134.453 2.88066C134.619 2.78002 134.799 2.728 134.991 2.728C135.195 2.728 135.316 2.97532 135.355 3.46656L135.61 7.67364C135.636 8.07703 135.649 8.30474 135.649 8.35506Z" fill="#646565"/>
</g>
<path fill-rule="evenodd" clip-rule="evenodd" d="M139.215 18.3987C139.215 20.8658 139.947 22.9817 141.41 24.7466C142.882 26.5148 144.766 27.3976 147.061 27.3976C148.982 27.3976 150.542 26.698 151.742 25.3011C152.95 23.9042 153.554 22.1335 153.554 19.9888C153.554 17.5716 152.818 15.4793 151.345 13.7127C149.875 11.9369 148.015 11.0498 145.767 11.0498C143.855 11.0498 142.283 11.7116 141.049 13.0375C139.827 14.355 139.215 16.1418 139.215 18.3987ZM137.422 19.1195C137.422 16.5798 138.279 14.4664 139.992 12.7792C141.704 11.0836 143.858 10.2354 146.45 10.2354C148.996 10.2354 151.111 11.06 152.801 12.7066C154.498 14.3457 155.347 16.438 155.347 18.9861C155.347 21.8077 154.466 24.041 152.705 25.6876C150.944 27.3284 148.72 28.1471 146.03 28.1471C143.429 28.1471 141.343 27.3158 139.775 25.6522C138.207 23.9819 137.422 21.8035 137.422 19.1195Z" fill="#646565"/>
<path fill-rule="evenodd" clip-rule="evenodd" d="M160.671 15.4438C160.551 15.4438 160.486 15.677 160.469 16.146L160.178 23.9213C160.16 24.3954 160.152 24.7 160.152 24.8308C160.169 26.3728 160.757 27.2376 161.917 27.4252C162.086 27.4673 162.226 27.5207 162.336 27.5861C162.445 27.6506 162.501 27.7547 162.501 27.901C162.501 28.0654 162.315 28.1471 161.943 28.1471C161.8 28.1471 161.454 28.1282 160.905 28.0929C160.363 28.0559 159.917 28.0387 159.561 28.0387C159.249 28.0387 158.831 28.0559 158.308 28.0929C157.793 28.1282 157.483 28.1471 157.382 28.1471C157.163 28.1471 157.054 28.0533 157.054 27.8657C157.054 27.6997 157.26 27.5534 157.672 27.4252C158.095 27.2944 158.389 27.0853 158.558 26.7979C158.734 26.5105 158.852 26.0364 158.912 25.3703L159.404 18.81C159.481 18.0227 159.519 17.1312 159.519 16.1382C159.519 14.6685 159.376 13.5 159.09 12.6309C158.803 11.761 158.262 11.2025 157.47 10.9564C157.192 10.8661 157.054 10.7146 157.054 10.5047C157.054 10.3248 157.209 10.2354 157.52 10.2354C157.587 10.2354 157.808 10.2534 158.178 10.2896C158.556 10.3257 158.81 10.3438 158.937 10.3438C159.054 10.3438 159.274 10.3257 159.593 10.2896C159.922 10.2534 160.15 10.2354 160.277 10.2354C160.463 10.2354 160.596 10.3343 160.682 10.5314L160.948 11.0709L166.977 23.8714C167.205 24.3292 167.389 24.5598 167.524 24.5598C167.608 24.5598 167.791 24.2982 168.071 23.7716L174.613 10.9736C174.847 10.4814 175.055 10.2354 175.232 10.2354C175.352 10.2354 175.558 10.2534 175.852 10.2896C176.147 10.3257 176.359 10.3438 176.486 10.3438C176.62 10.3438 176.822 10.3257 177.096 10.2896C177.374 10.2534 177.55 10.2354 177.627 10.2354C177.839 10.2354 177.943 10.3334 177.943 10.5288C177.943 10.7491 177.753 10.891 177.377 10.9564C176.865 11.0631 176.503 11.2886 176.294 11.6328C176.091 11.977 175.99 12.5027 175.99 13.2083L176.003 13.9716L176.347 25.3222C176.361 25.9951 176.438 26.4442 176.573 26.6766C176.708 26.896 177.001 27.0724 177.459 27.204C177.701 27.2694 177.937 27.3443 178.165 27.4252C178.318 27.4914 178.393 27.6222 178.393 27.8176C178.393 28.0378 178.264 28.1471 178.002 28.1471C177.875 28.1471 177.475 28.1282 176.801 28.0929C176.134 28.0559 175.726 28.0387 175.574 28.0387C175.295 28.0387 174.865 28.0559 174.283 28.0929C173.702 28.1282 173.309 28.1471 173.107 28.1471C172.88 28.1471 172.767 28.074 172.767 27.926C172.767 27.6997 172.961 27.531 173.346 27.4252C174.029 27.2462 174.37 26.9416 174.37 26.5165V25.8763C174.37 25.8014 174.357 25.5975 174.331 25.2602L174.101 15.9713C174.075 15.35 173.989 15.0368 173.846 15.0368C173.634 15.0368 173.408 15.2709 173.171 15.7373L167.656 26.7695C167.307 27.4252 167.071 27.7522 166.945 27.7522C166.834 27.7522 166.643 27.4794 166.372 26.9313L161.172 16.1193C160.938 15.6684 160.77 15.4438 160.671 15.4438Z" fill="#646565"/>
<path fill-rule="evenodd" clip-rule="evenodd" d="M185.121 17.7276C185.121 18.0606 185.163 18.2662 185.246 18.3376C185.33 18.4125 185.562 18.4486 185.944 18.4486H188.773C189.887 18.4486 190.582 18.0864 190.857 17.3679C190.939 17.1622 191.014 16.9652 191.08 16.7767C191.147 16.5797 191.239 16.4824 191.365 16.4824C191.549 16.4824 191.638 16.6872 191.638 17.0968C191.638 17.213 191.626 17.5365 191.6 18.0692C191.581 18.6035 191.574 19.0501 191.574 19.4115C191.574 19.6817 191.581 20.0259 191.6 20.445C191.626 20.8545 191.638 21.1471 191.638 21.3183C191.638 21.5894 191.549 21.7245 191.365 21.7245C191.124 21.7245 190.956 21.4139 190.857 20.7909C190.713 19.9708 190.177 19.5621 189.248 19.5621H185.646C185.297 19.5621 185.121 19.723 185.121 20.0431V25.459C185.121 26.5742 185.65 27.229 186.706 27.426C187.247 27.5319 187.516 27.6919 187.516 27.9019C187.516 28.0662 187.346 28.1471 187.006 28.1471C186.888 28.1471 186.59 28.1273 186.108 28.0929C185.625 28.0568 184.999 28.0396 184.235 28.0396C183.735 28.0396 183.186 28.0568 182.588 28.0929C181.997 28.1273 181.671 28.1471 181.604 28.1471C181.364 28.1471 181.241 28.0731 181.241 27.9268C181.241 27.7978 181.472 27.63 181.929 27.426C182.713 27.0904 183.104 26.3702 183.104 25.2636V13.118C183.104 11.8333 182.648 11.1105 181.74 10.9564C181.416 10.9074 181.202 10.8583 181.103 10.8084C181.004 10.7602 180.953 10.6794 180.953 10.5649C180.953 10.484 180.995 10.41 181.077 10.3446C181.161 10.2724 181.631 10.2354 182.488 10.2354C183.561 10.2354 184.878 10.2543 186.443 10.2896C188.015 10.3266 188.878 10.3446 189.036 10.3446C189.52 10.3446 190.188 10.3266 191.047 10.2896C191.912 10.2543 192.419 10.2354 192.568 10.2354C192.792 10.2354 192.903 10.4849 192.903 10.9866C192.903 12.9192 192.737 13.8829 192.404 13.8829C192.131 13.8829 191.994 13.5043 191.994 12.7497C191.994 12.2506 191.753 11.8763 191.272 11.6311C190.789 11.3858 189.936 11.2619 188.713 11.2619C186.634 11.2619 185.517 11.3393 185.359 11.4951C185.202 11.6422 185.121 11.9589 185.121 12.4416V17.7276Z" fill="#646565"/>
<path fill-rule="evenodd" clip-rule="evenodd" d="M195.549 18.3987C195.549 20.8658 196.283 22.9817 197.744 24.7466C199.216 26.5148 201.102 27.3976 203.397 27.3976C205.317 27.3976 206.877 26.698 208.078 25.3011C209.284 23.9042 209.888 22.1335 209.888 19.9888C209.888 17.5716 209.151 15.4793 207.68 13.7127C206.211 11.9369 204.348 11.0498 202.104 11.0498C200.191 11.0498 198.617 11.7116 197.385 13.0375C196.163 14.355 195.549 16.1418 195.549 18.3987ZM193.757 19.1195C193.757 16.5798 194.612 14.4664 196.325 12.7792C198.037 11.0836 200.191 10.2354 202.787 10.2354C205.33 10.2354 207.448 11.06 209.136 12.7066C210.832 14.3457 211.681 16.438 211.681 18.9861C211.681 21.8077 210.8 24.041 209.039 25.6876C207.279 27.3284 205.054 28.1471 202.364 28.1471C199.763 28.1471 197.68 27.3158 196.11 25.6522C194.542 23.9819 193.757 21.8035 193.757 19.1195Z" fill="#646565"/>
<path fill-rule="evenodd" clip-rule="evenodd" d="M224.525 15.1385C224.525 13.8342 224.114 12.8293 223.291 12.1256C222.479 11.4184 221.318 11.0665 219.81 11.0665C219.138 11.0665 218.73 11.1516 218.591 11.3237C218.46 11.4958 218.395 11.7375 218.395 12.049V17.7497C218.395 18.1592 218.466 18.4251 218.604 18.5481C218.741 18.6703 219.063 18.7331 219.569 18.7331C220.519 18.7004 221.029 18.6832 221.093 18.6832C222.104 18.6746 222.924 18.3924 223.561 17.8332C224.204 17.2679 224.525 16.3688 224.525 15.1385ZM230.459 27.8752C230.459 28.0551 229.961 28.1471 228.966 28.1471C228.145 28.1471 227.449 27.9449 226.878 27.5431C226.306 27.1414 225.741 26.4789 225.177 25.5514L221.939 20.3876C221.726 20.0348 221.496 19.8257 221.244 19.7595C220.999 19.6872 220.384 19.6494 219.398 19.6494C218.95 19.6494 218.669 19.6821 218.556 19.7475C218.449 19.8128 218.395 19.9763 218.395 20.2387V25.6555C218.395 26.2776 218.55 26.7034 218.859 26.9323C219.178 27.1637 219.593 27.3272 220.107 27.4236C220.676 27.538 220.961 27.7144 220.961 27.9501C220.961 28.0809 220.887 28.1471 220.742 28.1471C220.553 28.1471 220.207 28.1256 219.701 28.0912C219.206 28.0542 218.563 28.037 217.781 28.037C217.496 28.037 216.998 28.0542 216.292 28.0912C215.592 28.1256 215.159 28.1471 214.996 28.1471C214.727 28.1471 214.591 28.0645 214.591 27.9011C214.591 27.8038 214.622 27.7264 214.678 27.6696C214.736 27.6128 214.891 27.5311 215.143 27.4236C215.437 27.31 215.724 27.1087 216.001 26.823C216.279 26.5288 216.417 25.942 216.417 25.0662V12.7252C216.417 11.7263 215.925 11.137 214.944 10.9572C214.477 10.8755 214.242 10.7326 214.242 10.5287C214.242 10.3343 214.42 10.2354 214.771 10.2354C214.836 10.2354 215.031 10.2543 215.357 10.2904C215.684 10.3265 216.05 10.3446 216.458 10.3446C216.865 10.3446 217.589 10.3265 218.624 10.2904C219.658 10.2543 220.443 10.2354 220.974 10.2354C224.6 10.2354 226.415 11.6894 226.415 14.5922C226.415 15.7167 226.08 16.6579 225.403 17.4116C224.736 18.1661 224.022 18.7047 223.264 19.0248L226.904 24.6197C227.533 25.5858 228.024 26.2681 228.384 26.6604C228.743 27.0545 229.153 27.3152 229.617 27.4451C229.846 27.5277 230.041 27.593 230.204 27.6421C230.375 27.692 230.459 27.7694 230.459 27.8752Z" fill="#646565"/>
<path fill-rule="evenodd" clip-rule="evenodd" d="M245.823 13.1961C245.823 13.45 245.734 13.5782 245.553 13.5782C245.4 13.5782 245.283 13.5214 245.201 13.4052C245.12 13.2847 245.072 13.1247 245.055 12.9294C244.995 12.4088 244.803 12.0603 244.473 11.8891C244.153 11.7187 243.76 11.6336 243.301 11.6336H239.159C238.862 11.6336 238.713 11.8297 238.713 12.223V25.6561C238.713 26.2128 238.845 26.631 239.108 26.9098C239.372 27.1894 239.673 27.3607 240.011 27.4243C240.298 27.4829 240.494 27.5483 240.602 27.6205C240.718 27.6954 240.776 27.7797 240.776 27.8778C240.776 28.0576 240.674 28.1471 240.468 28.1471C240.37 28.1471 240.073 28.1273 239.58 28.0929C239.094 28.055 238.65 28.0378 238.247 28.0378C237.514 28.0378 236.837 28.055 236.211 28.0929C235.586 28.1273 235.194 28.1471 235.031 28.1471C234.824 28.1471 234.719 28.0576 234.719 27.8778C234.719 27.6833 234.881 27.5319 235.199 27.4243C235.718 27.2703 236.098 27.0828 236.347 26.8608C236.593 26.631 236.716 26.2301 236.716 25.6561V12.223C236.716 11.8297 236.584 11.6336 236.322 11.6336H232.206C231.603 11.6336 231.184 11.7187 230.945 11.8891C230.711 12.0603 230.522 12.4157 230.375 12.9535C230.279 13.3278 230.195 13.5971 230.13 13.7606C230.068 13.9146 229.972 13.992 229.851 13.992C229.689 13.992 229.606 13.8991 229.606 13.7107C229.606 13.6935 229.623 13.5343 229.656 13.2314L229.903 10.9951C229.951 10.4892 230.13 10.2354 230.437 10.2354C230.894 10.2354 231.977 10.2534 233.68 10.2904C235.392 10.3266 236.676 10.3446 237.53 10.3446C239.938 10.3446 241.742 10.3266 242.934 10.2904C244.136 10.2534 244.809 10.2354 244.948 10.2354C245.22 10.2354 245.403 10.2844 245.501 10.3833C245.609 10.4737 245.673 10.6811 245.689 11.0089L245.787 12.7177C245.811 13.0128 245.823 13.1712 245.823 13.1961Z" fill="#646565"/>
<path fill-rule="evenodd" clip-rule="evenodd" d="M260.184 14.4582H260.185C259.315 14.4582 258.54 14.9153 257.859 15.8305C257.187 16.7449 256.852 17.7092 256.852 18.7245C256.852 20.7237 257.622 22.4921 259.162 24.0299C260.701 25.5583 262.541 26.32 264.683 26.32C266.695 26.32 268.467 25.6618 269.995 24.3462V24.3479C267.056 21.5439 265.328 19.845 264.815 19.2538L262.285 16.3131C261.753 15.6694 261.299 15.202 260.924 14.9111C260.549 14.61 260.302 14.4582 260.184 14.4582ZM276.58 28.1469C275.703 28.1469 274.81 27.8602 273.902 27.2877C273.291 26.9264 272.329 26.1732 271.016 25.0256C268.837 27.1062 266.331 28.1469 263.5 28.1469C261.161 28.1469 259.193 27.4183 257.594 25.9612C256.006 24.4938 255.213 22.5846 255.213 20.2334C255.213 18.4641 255.641 17.0214 256.5 15.9069C257.358 14.7805 258.576 14.0358 260.154 13.6753C259.228 12.5489 258.762 11.3827 258.762 10.1774C258.762 8.90092 259.231 7.8814 260.168 7.1172C261.103 6.35384 262.257 5.97046 263.626 5.97046C264.617 5.97046 265.402 6.09853 265.975 6.35044C266.55 6.6032 266.872 6.72873 266.942 6.72873C267.021 6.72873 267.085 6.68378 267.134 6.59217C267.185 6.49972 267.293 6.45392 267.461 6.45392C267.68 6.45392 267.799 6.69565 267.82 7.17826L267.897 10.2529C267.897 10.4548 267.809 10.5549 267.634 10.5549C267.485 10.5549 267.364 10.4641 267.267 10.2826C267.169 10.0918 267.079 9.90092 267.001 9.70923C266.723 9.12568 266.203 8.49209 265.443 7.80761C264.683 7.12313 263.875 6.78132 263.025 6.78132C262.263 6.78132 261.649 7.0222 261.186 7.50481C260.721 7.97725 260.488 8.55062 260.488 9.22407C260.488 10.4709 261.796 12.4963 264.408 15.3004C267.029 18.096 269.369 20.4735 271.43 22.4328L271.431 22.4311C271.973 21.7585 272.244 20.7203 272.244 19.3148C272.244 18.2377 272.071 17.4887 271.727 17.0663C271.381 16.6439 270.819 16.3573 270.04 16.2054C269.615 16.1359 269.403 15.9798 269.403 15.7381C269.403 15.5557 269.625 15.465 270.069 15.465C270.474 15.465 270.946 15.4862 271.49 15.526C272.042 15.5659 272.461 15.5863 272.748 15.5863C272.866 15.5863 273.129 15.5659 273.532 15.526C273.936 15.4862 274.282 15.465 274.568 15.465C274.914 15.465 275.086 15.6015 275.086 15.8729C275.086 16.0137 274.967 16.1257 274.731 16.2054C274.357 16.3573 274.1 16.5625 273.962 16.8263C273.823 17.0765 273.734 17.5193 273.695 18.1528C273.636 19.0383 273.462 19.9662 273.177 20.9408C272.891 21.9043 272.619 22.6041 272.362 23.0341L272.361 23.0367C273.239 23.8602 274.13 24.6635 275.037 25.4489C276.292 26.5235 277.225 27.063 277.837 27.063C277.996 27.063 278.189 27.0426 278.416 27.001C278.652 26.962 278.807 26.9408 278.874 26.9408C279.034 26.9408 279.112 27.0307 279.112 27.2122C279.112 27.4438 278.835 27.6592 278.283 27.8602C277.73 28.0511 277.163 28.1469 276.58 28.1469Z" fill="#646565"/>
<path fill-rule="evenodd" clip-rule="evenodd" d="M313.188 8.35431C313.188 8.84729 313.073 9.09464 312.842 9.09464C312.65 9.09464 312.489 8.97352 312.365 8.73385C312.235 8.49418 312.11 8.24257 311.98 7.97732C311.097 6.27319 309.818 4.7098 308.138 3.28372C306.473 1.84486 304.262 1.125 301.511 1.125C297.939 1.125 295.162 2.20649 293.174 4.36352C291.19 6.5103 290.198 9.53389 290.198 13.4334C290.198 17.1948 291.269 20.3881 293.405 23.0142C295.545 25.6275 298.303 26.9342 301.683 26.9342C304.618 26.9342 307.19 26.1589 309.405 24.604C310.165 24.0744 310.766 23.5814 311.214 23.1277C311.713 22.5963 312.048 22.0922 312.215 21.612C312.395 21.1182 312.618 20.8717 312.888 20.8717C313.134 20.8717 313.254 21.0039 313.254 21.2709C313.254 21.3075 313.212 21.4909 313.118 21.8193L312.385 24.9461C312.178 25.7154 310.963 26.4421 308.733 27.1227C306.506 27.8076 304.153 28.1471 301.683 28.1471C296.675 28.1471 292.943 26.8472 290.483 24.245C288.024 21.6444 286.794 18.475 286.794 14.7384C286.794 10.5941 288.132 7.10308 290.809 4.26202C293.483 1.42096 296.873 0 300.968 0C302.888 0 304.565 0.202994 305.999 0.60557C307.434 0.997058 308.747 1.54634 309.937 2.25426C310.78 2.77283 311.319 3.03126 311.548 3.03126C311.679 3.03126 311.824 2.98094 311.99 2.8803C312.157 2.7788 312.338 2.72848 312.53 2.72848C312.735 2.72848 312.857 2.97412 312.894 3.4671L313.149 7.67283C313.173 8.07796 313.188 8.30398 313.188 8.35431Z" fill="#646565"/>
<path fill-rule="evenodd" clip-rule="evenodd" d="M317.608 18.3979C317.608 20.8631 318.34 22.9788 319.804 24.7452C321.275 26.5133 323.159 27.3969 325.456 27.3969C327.377 27.3969 328.935 26.6981 330.136 25.3014C331.34 23.9021 331.947 22.1324 331.947 19.9879C331.947 17.5709 331.211 15.4788 329.738 13.7099C328.266 11.9367 326.408 11.0498 324.159 11.0498C322.247 11.0498 320.676 11.7114 319.444 13.0372C318.218 14.3538 317.608 16.1412 317.608 18.3979ZM315.815 19.1178C315.815 16.5809 316.671 14.466 318.385 12.7781C320.098 11.0835 322.25 10.2354 324.845 10.2354C327.388 10.2354 329.503 11.059 331.195 12.7056C332.89 14.3453 333.739 16.4383 333.739 18.9853C333.739 21.8066 332.858 24.0397 331.097 25.687C329.336 27.3268 327.114 28.1471 324.422 28.1471C321.821 28.1471 319.737 27.3141 318.168 25.6516C316.601 23.9806 315.815 21.8024 315.815 19.1178Z" fill="#646565"/>
<mask id="mask1_1150_4065" style="mask-type:luminance" maskUnits="userSpaceOnUse" x="336" y="24" width="4" height="5">
<path fill-rule="evenodd" clip-rule="evenodd" d="M336.3 24.7354H339.714V28.1471H336.3V24.7354Z" fill="white"/>
</mask>
<g mask="url(#mask1_1150_4065)">
<path fill-rule="evenodd" clip-rule="evenodd" d="M336.3 26.4673C336.3 26.3119 336.389 26.1821 336.571 26.077C336.764 25.9674 336.928 25.8403 337.069 25.7005C337.222 25.5625 337.378 25.3651 337.525 25.1146C337.68 24.8624 337.84 24.7354 338.005 24.7354C338.164 24.7354 338.306 24.8459 338.435 25.0625C338.575 25.2782 338.705 25.4574 338.829 25.5972C339.001 25.769 339.191 25.9217 339.4 26.0542C339.61 26.1721 339.715 26.3046 339.715 26.4408C339.715 26.5916 339.62 26.7287 339.427 26.8575C339.245 26.9818 339.062 27.1445 338.88 27.3529C338.742 27.5092 338.587 27.6837 338.422 27.8757C338.268 28.0566 338.13 28.1471 338.005 28.1471C337.858 28.1471 337.716 28.0466 337.578 27.8492C337.445 27.649 337.301 27.4745 337.147 27.3273C337.007 27.1893 336.828 27.0449 336.611 26.8968C336.403 26.7415 336.3 26.5998 336.3 26.4673Z" fill="#646565"/>
</g>
</svg>
